<svg xmlns="http://www.w3.org/2000/svg" xmlns:xlink="http://www.w3.org/1999/xlink" viewBox="0 0 315.85 235.97"><defs><style>.cls-1{fill:none;}.cls-2{clip-path:url(#clip-path);}.cls-3{fill:#fff;}.cls-4{clip-path:url(#clip-path-2);}</style><clipPath id="clip-path"><rect class="cls-1" x="1.89" y="2" width="314" height="234" rx="23.67" ry="23.67"/></clipPath><clipPath id="clip-path-2"><rect class="cls-1" x="1.89" y="2" width="314" height="234"/></clipPath></defs><title>Logo 5</title><g id="Layer_2" data-name="Layer 2"><g id="Layer_5" data-name="Layer 5"><g class="cls-2"><path d="M50.88,236h-49q0-117,0-234h314q0,117,0,234h-147c-.57-1.68-1.17-3.35-1.71-5-1-3-1.73-6.06-2.95-8.94-.67-1.58-2.11-2.83-3.95-5.18,4.55-2.16,8.61-5.84,12.33-5.52,10.08.86,20.06,3.23,30,5.35,7.16,1.53,14.16,3.79,21.31,5.4,2.64.59,5.5.13,8.24.34,8.24.64,10.15-.72,12.28-8.8.14-.55.78-1,1.37-1.65l3.33,4.57c1.61-3.72,3.31-6.28,3.78-9.06.66-3.88.39-7.92.55-11.89.25-6.14.67-12.2,5.57-16.88a13.39,13.39,0,0,0,2.51-4.18c2-4.27,6.31-6.38,11.1-6.71a53.7,53.7,0,0,0,14.28-2.9c6.48-2.32,9.13-8,11.34-14.25,2-5.79.5-10.73-1.41-15.82-1.33-3.55-4.2-4.87-7.95-4.54-.48,0-1.09-.67-1.53-1.14-5.61-6-12.1-11.35-16.55-18.08-4.3-6.52-12-12-9.47-21.88.5-1.94-.75-4.33-1.33-7.18-2.77,2.27-4.63,4.79-7,5.46s-5-.69-8.77-1.37l12.57-7.94c-2.54-1.64-3.79-2.95-5.27-3.31-9-2.2-18-4.31-27-6.2-5.52-1.15-11.39-1.13-16.64-3-5.86-2-12.59-3.71-14.91-11-1.2-3.77.06-5.72,4-5.79,2.34,0,4.67,0,7,0l.18-1.93c-5.64-1.07-11.51-3.66-16.84-2.82-6.12,1-12,5.17-15.63,10.44-3.48,5-5.79,11-7.9,16.76-.85,2.33.64,5.4.28,8-.59,4.34-1.12,8.94-3,12.8a23.41,23.41,0,0,1-7.92,8.91c-3.1,2-6.39-.2-8.72-2.85a110.93,110.93,0,0,1-7.29-8.8c-4.54-6.39-11.35-10.36-14.86-9.39-1.7-1.36-2.67-2.79-3.71-2.84-2.37-.11-4.93-1.39-6.94,2-.91,1.54-5.49.59-7.1,2.13-2.38,2.29-3.75,5.71-5.28,8.79-1.68,3.37-2.89,6.85,2.57,8.22-6.37,6.37-6.48,10.15-.94,17.09a3.3,3.3,0,0,1,.71,2.25c-.57,3.88-.77,7.93-2.08,11.58C95.28,141.1,94,153.62,89,165.43c-3.77,9-6,18.74-11.22,27.21-4.09,6.63-8.61,13-12.72,19.61C60.24,220.08,55.61,228.06,50.88,236ZM250.61,24.17,247.55,8.95c-2.08.81-3.89,1.65-5.78,2.22-4.29,1.29-8.07,3.34-9.68,7.74-2,5.53-4.66,10.18-11.62,10.69,1.09,3.85,2.23,7.26,3,10.76.8,3.69,1,7.51,1.87,11.19a29.12,29.12,0,0,0,3,8.38,10.58,10.58,0,0,0,5.06,3.89c6,2.34,12.11,4.22,18.13,6.44,3,1.09,5.84,2.52,8.27,3.58.61-3.92,1-5.09,1.57-10.47m-38.72-2.49c-14.52-8.75-22-10.05-24.39-4.71A39.43,39.43,0,0,0,222.62,60.88Z"/><path class="cls-3" d="M248.89,220c-3,2-8.51,3-16.75,2.4-2.74-.21-5.6.25-8.24-.34-7.15-1.61-14.15-3.87-21.31-5.4-9.94-2.13-19.92-4.49-30-5.35-3.72-.32-6.33,1.34-7.7,5.52-1,3.18-1,4.18-.68,5.18,1.22,2.88,2,6,2.95,8.94.55,1.68,1.14,3.35,1.71,5h-118c4.73-7.91,9.36-15.89,14.22-23.72,4.11-6.62,8.63-13,12.72-19.61,5.23-8.47,7.45-18.23,11.22-27.21,5-11.81,6.23-24.33,10.45-36.14,1.3-3.64,1.5-7.69,2.08-11.58a3.3,3.3,0,0,0-.71-2.25c-5.54-6.94-11-15.47-7-19.47,3-5,1.65-3.16,4-7a39.44,39.44,0,0,1,6.63-7.62c1.61-1.54,4.63-2.62,6.37-3.38,3.63-1.58,5.3-.89,7.67-.78A10.15,10.15,0,0,1,123.89,79c3.61,1.94,8.7,4.06,13.25,10.45a110.93,110.93,0,0,0,7.29,8.8c2.34,2.65,5.62,4.89,8.72,2.85a23.41,23.41,0,0,0,7.92-8.91c1.87-3.85,2.39-8.45,3-12.8.36-2.63-1.13-5.71-.28-8,2.11-5.8,4.42-11.74,7.9-16.76,3.66-5.28,9.5-9.47,15.63-10.44,5.33-.84,11.21,1.75,16.84,2.82L204,48.9c-2.34,0-4.67,0-7,0-3.92.07-5.18,2-4,5.79,2.32,7.26,9,8.93,14.91,11,5.25,1.83,11.12,1.81,16.64,3,9,1.89,18,4,27,6.2,1.48.36,2.73,1.67,5.27,3.31l-12.57,7.94c3.75.68,6.53,2,8.77,1.37s4.24-3.19,7-5.46c.58,2.86,1.83,5.25,1.33,7.18-2.55,9.83,5.17,15.36,9.47,21.88,4.45,6.74,10.94,12.12,16.55,18.08.44.47,1.05,1.18,1.53,1.14,3.75-.33,6.61,1,7.95,4.54,1.91,5.1,3.45,10,1.41,15.82-2.21,6.28-4.86,11.93-11.34,14.25a53.7,53.7,0,0,1-14.28,2.9c-4.79.33-9.14,2.43-11.1,6.71a13.39,13.39,0,0,1-2.51,4.18c-4.9,4.67-5.32,10.73-5.57,16.88-.16,4-.55,11.89-.55,11.89s-.28,8.56-3.5,12M232.16,133c1-.89,1.8-1.65,2.62-2.38,4.06-3.61,8.51-6.47,7.32-13.53-.92-5.43-2.51-9.65-7.75-12.18-2.46-1.19-4.72-2.78-7.07-4.18,12.59,0,17.86,8.39,21.06,18.31,1.73,5.36,1.83,11.23,2.76,16.86a24,24,0,0,0,1.2,3.65h2.15c.57-3.72,1.83-7.51,1.52-11.15-.37-4.22-1.86-8.42-3.34-12.46-4.19-11.45-11.51-19.54-23.79-23-11.38-3.2-22.74-1.4-34.14-1.36-6,0-12.84,2.86-16.84-4.43-5.43,5.26-5.58,6.82.07,9.48a27.47,27.47,0,0,0,11.46,2.17c7.37,0,14.74-.83,22.12-1.18a48.81,48.81,0,0,1,6.11.45,56,56,0,0,1-11.18,5.48c-2.73,1-3.85,2-2.3,5.08,2.45,4.8,4.5,9.8,6.75,14.8-4.66-1.71-9.56-3.53-14.48-5.31-11.54-4.18-23.07-8.4-34.67-12.42-1.2-.42-2.85.47-4.29.75.88,1,1.56,2.45,2.67,3,4.3,2.15,8.68,4.17,13.13,6,19.06,7.7,38.18,15.23,57.21,23,4.49,1.83,8.7,4.34,13,6.53l1.27-2Zm39.09,18.41.35,2c3.42-.16,6.86-.23,10.26-.58.63-.07,1.29-1.24,1.61-2,.12-.29-.65-1.37-1.05-1.4C278.51,149.16,274.47,148.56,271.26,151.4Zm.7,10.7c1.28-1.72,2.66-3.24,2.51-3.42a46.37,46.37,0,0,0-4.4-4.09c-.65.78-2,1.93-1.82,2.29A40.07,40.07,0,0,0,272,162.1Z"/><path class="cls-3" d="M261.34,63.37c-.45,5.63-1,6.55-1.57,10.47-2.43-1.06-5.29-2.49-8.27-3.58-6-2.21-12.16-4.1-18.13-6.44a10.58,10.58,0,0,1-5.06-3.89,29.12,29.12,0,0,1-3-8.38c-.84-3.68-1.07-7.5-1.87-11.19-.75-3.49-1.9-6.9-3-10.76,7-.51,9.59-5.16,11.62-10.69,1.61-4.4,5.38-6.45,9.68-7.74,1.89-.57,5.78-2.22,5.78-2.22m.36,47.69-7.73,4.61.77,1.85c1.57.3,4.22,1.26,4.51.78C246.58,62,247,59.74,247.91,56.64Zm-7-9.86-1.5.68,3.75,6.61,3.74-2.18Z"/><path class="cls-3" d="M222.62,60.88a39.43,39.43,0,0,1-24.39-4.71C200.61,50.83,208.11,52.13,222.62,60.88Z"/><path d="M232.16,133l12.63,10-1.27,2c-4.34-2.2-8.56-4.7-13-6.53-19-7.77-38.16-15.3-57.21-23-4.46-1.8-8.83-3.82-13.13-6-1.11-.56-1.79-2-2.67-3,1.44-.28,3.09-1.16,4.29-.75,11.6,4,23.13,8.24,34.67,12.42,4.92,1.78,9.82,3.6,14.48,5.31-2.25-5-4.3-10-6.75-14.8-1.55-3-.43-4.09,2.3-5.08a56,56,0,0,0,11.18-5.48,48.81,48.81,0,0,0-6.11-.45c-7.38.35-14.75,1.17-22.12,1.18a27.47,27.47,0,0,1-11.46-2.17c-5.65-2.66-5.5-4.21-.07-9.48,4,7.29,10.84,4.45,16.84,4.43,11.4,0,22.76-1.85,34.14,1.36,12.28,3.46,19.6,11.55,23.79,23,1.48,4,3,8.24,3.34,12.46.32,3.65-.95,7.43-1.52,11.15H252.3a24,24,0,0,1-1.2-3.65c-.93-5.63-1-11.5-2.76-16.86-3.2-9.92-8.46-18.31-21.06-18.31,2.35,1.41,4.61,3,7.07,4.18,5.24,2.53,6.84,6.75,7.75,12.18,1.19,7.06-3.26,9.93-7.32,13.53C234,131.34,233.14,132.1,232.16,133Z"/><path d="M271.26,151.4c3.21-2.84,7.25-2.23,11.16-2,.41,0,1.17,1.11,1.05,1.4-.33.79-1,2-1.61,2-3.4.35-6.84.42-10.26.58Z"/><path d="M272,162.1a40.07,40.07,0,0,1-3.72-5.21c-.18-.37,1.18-1.51,1.82-2.29a46.37,46.37,0,0,1,4.4,4.09C274.62,158.86,273.24,160.38,272,162.1Z"/><path d="M247.91,56.64c-1,3.1-1.33,5.4-2.45,7.25-.29.48-2.94-.48-4.51-.78l-.77-1.85Z"/><path d="M240.87,46.78l6,5.12-3.74,2.18-3.75-6.61Z"/><g class="cls-4"><path class="cls-3" d="M157.46,2C97.89,2,90.89,24,71.89,44s-28,87-42,114-26,30-28,63,0-219,0-219Z"/><path d="M156.46,0C96.89,0,89.89,22,70.89,42s-28,87-42,114-26,30-28,63S.89,0,.89,0Z"/></g></g></g></g></svg>